<svg width="36px" height="33px" viewBox="0 0 36 33">
    <g id="folder" transform="translate(-26.000000, 1.000000)" stroke="none" stroke-width="1" fill="none">
        <g id="Group" transform="translate(26.000000, -1.000000)">
            <path d="M0,6 L34,6 C35.1045695,6 36,6.8954305 36,8 L36,31 C36,32.1045695 35.1045695,33 34,33 L2,33 C0.8954305,33 1.3527075e-16,32.1045695 0,31 L0,6 Z" id="Rectangle-2" fill="#B26000"></path>
            <path d="M2,0.75 C1.30964406,0.75 0.75,1.30964406 0.75,2 L0.75,9 C0.75,9.69035594 1.30964406,10.25 2,10.25 L19.1446,10.25 C19.2902907,10.25 19.4348597,10.2245305 19.5717788,10.1747418 C20.2205708,9.93881743 20.5552661,9.22161314 20.3193418,8.57282117 L17.7738873,1.57282117 C17.5942558,1.07883469 17.1247785,0.75 16.5991455,0.75 L2,0.75 Z" id="Rectangle-3" stroke="#B26000" stroke-width="1.5"></path>
        </g>
    </g>
</svg>
