<svg width="21px" height="20px" viewBox="0 0 21 20">
    <g fill="#000000" stroke="none">
        <path d="M7.33462225,10.7566609 L0.218475531,2.34181738 C-0.285346333,1.74604802 0.138127494,0.833333333 0.918369503,0.833333333 L19.2505202,0.833333333 C20.0307622,0.833333333 20.4542361,1.74604802 19.9504142,2.34181738 L12.8342675,10.7566609 L12.8342675,18.2488765 C12.8342675,18.9302661 12.1171939,19.3734419 11.5077406,19.0687152 L7.84131044,17.2355001 C7.53077844,17.0802341 7.33462225,16.7628468 7.33462225,16.4156614 L7.33462225,10.7566609 Z M17.2749526,2.6665484 L2.89393709,2.6665484 L8.95112376,9.82917165 C9.09105695,9.99464265 9.16783733,10.2043411 9.16783733,10.4210482 L9.16783733,15.8491668 L11.0010524,16.7657744 L11.0010524,10.4210482 C11.0010524,10.2043411 11.0778328,9.99464265 11.217766,9.82917165 L17.2749526,2.6665484 Z"></path>
    </g>
</svg>
