<svg width="52px" height="52px" viewBox="0 0 52 52" version="1.1" xmlns="http://www.w3.org/2000/svg" xmlns:xlink="http://www.w3.org/1999/xlink">
    <ellipse id="Oval-1" fill="#D5D5D5" cx="25.7508837" cy="25.752381" rx="25.7508837" ry="25.752381"></ellipse>
    <path d="M7.25428662,43.1428146 C7.36651272,42.3423994 7.51915764,41.7039695 7.72574144,41.368861 C8.96200364,39.49716 12.9180427,38.1602306 16.8740817,36.5559155 C20.5828683,34.6842144 21.5718781,34.1494427 21.5718781,34.1494427 L21.5718781,30.1386547 C21.5718781,30.1386547 20.0883634,29.0691113 19.5938585,25.3257092 C18.6048488,25.5930951 17.615839,23.721394 17.615839,22.9192364 C17.3685866,21.5823071 17.8630915,19.4432202 18.8521012,19.7106061 C18.6048488,17.838905 18.6048488,16.2345899 18.6048488,15.4324323 C18.8521012,12.2238019 21.8191305,8.74778568 26.2696744,8.74778568 C30.7202183,8.74778568 33.6872476,12.2238019 33.9345,15.4324323 C34.1817525,16.2345899 33.9345,17.838905 33.6872476,19.7106061 C35.4180147,19.7106061 35.1707622,21.849693 35.1707622,22.9192364 C34.9235098,23.9887799 34.1817525,25.5930951 33.1927427,25.3257092 C32.6982379,29.0691113 31.2147232,30.1386547 31.2147232,30.1386547 L31.2147232,34.1494427 C31.2147232,34.1494427 31.9564805,34.6842144 35.9125196,36.5559155 C39.6213062,38.1602306 43.5773452,39.49716 44.8136074,41.368861 C45.0201912,41.7039695 45.1728361,42.3423994 45.2850622,43.1428146 C40.5763194,48.2965926 33.8005207,51.5295238 26.2696744,51.5295238 C18.7388281,51.5295238 11.9630294,48.2965926 7.25428662,43.1428146 Z" id="Oval-2" fill="#B2B2B2"></path>        
</svg>
